# xmcd
#
# Track frame offsets: 
#        150
#        11791
#        31589
#        49809
#        60365
#        79030
#        95951
#        113875
#        127495
#        144338
#        158958
#
# Disc length: 2302 seconds
#
# Revision: 0
# Processed by: cddbd v1.5.1PL0 Copyright (c) Steve Scherf et al.
# Submitted via: ExactAudioCopy v0.95a5
#
DISCID=9308fc0b
DTITLE=Where You Are - Mike and Amy Finders Band
DYEAR=2004
DGENRE=Bluegrass
TTITLE0=Tommorrow'd Be A Good Day
TTITLE1=Muscatine
TTITLE2=Chuck Brown
TTITLE3=I'm Down to my Last Cigarette
TTITLE4=River's Blues
TTITLE5=Oregon
TTITLE6=Adeline
TTITLE7=Take our Time and Do It Right
TTITLE8=Back in the Band
TTITLE9=You Won't Believe Me
TTITLE10=I'm Bringin' Home Good News
EXTD=
EXTT0=
EXTT1=
EXTT2=
EXTT3=
EXTT4=
EXTT5=
EXTT6=
EXTT7=
EXTT8=
EXTT9=
EXTT10=
PLAYORDER=
